<svg xmlns="http://www.w3.org/2000/svg" width="1200" height="300" viewBox="0 0 1200 300" role="img" aria-labelledby="title desc" shape-rendering="crispEdges">
  <title id="title">Research Project Importer</title>
  <desc id="desc">Pixel-art research folder moving through an evidence scan toward human approval.</desc>
  <g transform="translate(44 38)">
    <rect x="0" y="48" width="32" height="128" fill="#d97706"/>
    <rect x="32" y="16" width="80" height="32" fill="#f59e0b"/>
    <rect x="32" y="48" width="160" height="128" fill="#d97706"/>
    <rect x="48" y="72" width="128" height="88" fill="#eff6ff"/>
    <rect x="64" y="88" width="72" height="12" fill="#2563eb"/>
    <rect x="64" y="112" width="96" height="12" fill="#4f46e5"/>
    <rect x="64" y="136" width="56" height="12" fill="#2563eb"/>
    <rect x="208" y="32" width="16" height="32" fill="#0891b2"/>
    <rect x="224" y="16" width="80" height="16" fill="#0891b2"/>
    <rect x="304" y="32" width="16" height="32" fill="#0891b2"/>
    <rect x="320" y="64" width="16" height="96" fill="#0891b2"/>
    <rect x="304" y="160" width="16" height="32" fill="#0891b2"/>
    <rect x="224" y="192" width="80" height="16" fill="#0891b2"/>
    <rect x="208" y="160" width="16" height="32" fill="#0891b2"/>
    <rect x="192" y="64" width="16" height="96" fill="#0891b2"/>
    <rect x="240" y="72" width="16" height="16" fill="#06b6d4"/>
    <rect x="272" y="104" width="16" height="16" fill="#06b6d4"/>
    <rect x="240" y="136" width="16" height="16" fill="#06b6d4"/>
    <rect x="344" y="128" width="32" height="32" fill="#059669"/>
    <rect x="376" y="160" width="32" height="32" fill="#059669"/>
    <rect x="408" y="112" width="32" height="48" fill="#059669"/>
  </g>
  <g font-family="ui-monospace,SFMono-Regular,Consolas,Liberation Mono,monospace">
    <text x="500" y="112" fill="#0f766e" font-size="42" font-weight="700">research-project-importer</text>
    <text x="504" y="158" fill="#475569" font-size="24" font-style="italic">evidence first. human approved.</text>
    <text x="504" y="210" fill="#64748b" font-size="19">READ-ONLY  ·  REVIEWABLE DAG  ·  AGENT HARNESS</text>
  </g>
</svg>
